<svg width="81" height="100" viewBox="0 0 81 100" fill="none" xmlns="http://www.w3.org/2000/svg">
<path d="M15.014 32.4219V41.4217C13.049 42.1061 11.4308 43.5453 10.5213 45.491L6.66148 53.7668C4.17223 59.1082 5.37438 65.4201 9.65348 69.473L20.8734 80.0963V98.0469C20.8734 99.1256 21.748 100 22.8265 100H31.6156C32.6941 100 33.5687 99.1256 33.5687 98.0469C33.5687 96.9682 32.6941 96.0938 31.6156 96.0938H24.7796V79.2559C24.7796 78.7193 24.5589 78.2064 24.1693 77.8377L12.3396 66.6367C9.28297 63.7416 8.42398 59.2326 10.2021 55.4174L14.0607 47.1438C14.9972 45.1406 17.3377 44.3582 19.2531 45.2525L38.5472 54.2486C35.8431 57.9004 30.8464 59.2791 26.572 57.2867L21.2615 54.8102C20.2837 54.3539 19.1216 54.7773 18.666 55.7547C18.2099 56.7322 18.633 57.8943 19.6105 58.3504L24.9213 60.8271C27.0982 61.842 29.5441 62.2938 32.0703 62.0346C36.1916 66.4871 38.4515 72.241 38.4515 78.3438C38.4515 79.4225 39.3261 80.2969 40.4047 80.2969C41.4832 80.2969 42.3578 79.4225 42.3578 78.3438C42.3578 71.9312 40.2111 65.8502 36.2605 60.9174C39.1693 59.6234 41.6427 57.317 43.0906 54.2123C43.0914 54.2107 43.0918 54.2092 43.0925 54.2076C44.0627 54.6402 45.1351 54.8828 46.264 54.8828C48.0078 54.8828 49.6199 54.3082 50.9213 53.3387C52.1755 55.9809 54.8689 57.8125 57.9828 57.8125C59.1857 57.8125 60.3257 57.5387 61.3445 57.051C60.8058 60.5572 59.9332 63.7543 59.0285 67.0629C57.5543 72.4545 56.0296 78.0297 56.0296 85.1562V96.0938H49.1937C48.1152 96.0938 47.2406 96.9682 47.2406 98.0469C47.2406 99.1256 48.1152 100 49.1937 100H57.9828C59.0613 100 59.9359 99.1256 59.9359 98.0469V85.1562C59.9359 78.5543 61.3253 73.4729 62.7964 68.0934C64.2707 62.7018 65.7953 57.1266 65.7953 50V38.2812C65.7953 33.9734 62.2906 30.4688 57.9828 30.4688C56.239 30.4688 54.6269 31.0434 53.3255 32.0129C52.0713 29.3707 49.3779 27.5391 46.264 27.5391C44.5203 27.5391 42.9082 28.1137 41.6068 29.0832C40.3525 26.441 37.6591 24.6094 34.5453 24.6094C32.2136 24.6094 30.1185 25.6375 28.6859 27.2627C27.2533 25.6375 25.1582 24.6094 22.8265 24.6094C18.5187 24.6094 15.014 28.1141 15.014 32.4219ZM54.0765 38.2812C54.0765 36.1273 55.8289 34.375 57.9828 34.375C60.1367 34.375 61.889 36.1273 61.889 38.2812V50C61.889 52.1539 60.1367 53.9062 57.9828 53.9062C55.8289 53.9062 54.0765 52.1539 54.0765 50V38.2812ZM42.3578 35.3516C42.3578 33.1977 44.1101 31.4453 46.264 31.4453C48.4179 31.4453 50.1703 33.1977 50.1703 35.3516V47.0703C50.1703 49.2242 48.4179 50.9766 46.264 50.9766C44.1101 50.9766 42.3578 49.2242 42.3578 47.0703V35.3516ZM30.639 32.4219C30.639 30.268 32.3914 28.5156 34.5453 28.5156C36.6992 28.5156 38.4515 30.268 38.4515 32.4219V47.0703C38.4515 48.1828 38.6869 49.241 39.108 50.2L30.639 46.2514V32.4219ZM18.9203 32.4219C18.9203 30.268 20.6726 28.5156 22.8265 28.5156C24.9804 28.5156 26.7328 30.268 26.7328 32.4219V44.4301L20.9048 41.7129C20.2705 41.4166 19.6027 41.2096 18.9203 41.0924V32.4219Z" fill="#1873CA"/>
<path d="M42.3578 8.98438V1.95312C42.3578 0.874414 41.4832 0 40.4047 0C39.3261 0 38.4515 0.874414 38.4515 1.95312V8.98438C38.4515 10.0631 39.3261 10.9375 40.4047 10.9375C41.4832 10.9375 42.3578 10.0631 42.3578 8.98438Z" fill="#1873CA"/>
<path d="M23.8029 15.3869C24.7371 14.8476 25.0574 13.6533 24.5181 12.7189L21.5884 7.64276C21.0492 6.70839 19.8546 6.38808 18.9205 6.92733C17.9863 7.46659 17.666 8.66093 18.2052 9.5953L21.1349 14.6715C21.6724 15.6029 22.8662 15.9277 23.8029 15.3869Z" fill="#1873CA"/>
<path d="M8.00602 24.8709L2.92984 21.9412C1.99469 21.4018 0.800742 21.7223 0.261875 22.6566C-0.277383 23.5908 0.0429296 24.7854 0.977109 25.3246L6.05328 28.2543C6.98355 28.791 8.17984 28.4773 8.72125 27.5389C9.26051 26.6045 8.9402 25.4102 8.00602 24.8709Z" fill="#1873CA"/>
<path d="M59.6744 14.6717L62.6041 9.59553C63.1433 8.66135 62.823 7.46682 61.8888 6.92756C60.9539 6.38811 59.7601 6.70881 59.2209 7.64299L56.2912 12.7192C55.7519 13.6533 56.0722 14.8479 57.0064 15.3871C57.9369 15.9237 59.1328 15.61 59.6744 14.6717Z" fill="#1873CA"/>
<path d="M74.756 28.2541L79.8322 25.3244C80.7664 24.7851 81.0867 23.5908 80.5474 22.6564C80.008 21.7222 78.8138 21.4015 77.8795 21.941L72.8033 24.8707C71.8691 25.4099 71.5488 26.6043 72.088 27.5386C72.6255 28.4701 73.8193 28.7949 74.756 28.2541Z" fill="#1873CA"/>
<path d="M40.4047 100C41.4833 100 42.3578 99.1256 42.3578 98.0469C42.3578 96.9682 41.4833 96.0938 40.4047 96.0938C39.326 96.0938 38.4515 96.9682 38.4515 98.0469C38.4515 99.1256 39.326 100 40.4047 100Z" fill="#1873CA"/>
</svg>
