<svg width="81" height="100" fill="none" xmlns="http://www.w3.org/2000/svg"><path d="M15.014 32.422v9a7.76 7.76 0 00-4.493 4.069l-3.86 8.276a13.66 13.66 0 002.992 15.706l11.22 10.623v17.95c0 1.08.875 1.954 1.953 1.954h8.79a1.953 1.953 0 000-3.906H24.78V79.256c0-.537-.221-1.05-.61-1.418L12.34 66.637a9.758 9.758 0 01-2.138-11.22l3.859-8.273a3.902 3.902 0 015.192-1.892l19.294 8.997c-2.704 3.651-7.7 5.03-11.975 3.038l-5.31-2.477a1.953 1.953 0 10-1.652 3.54l5.311 2.477a13.574 13.574 0 007.15 1.208c4.12 4.452 6.38 10.206 6.38 16.309a1.953 1.953 0 003.907 0c0-6.413-2.147-12.494-6.097-17.427a13.618 13.618 0 006.83-6.705c0-.001 0-.003.002-.004.97.432 2.042.675 3.171.675a7.77 7.77 0 004.657-1.544 7.822 7.822 0 007.062 4.474 7.765 7.765 0 003.361-.762c-.538 3.506-1.41 6.703-2.316 10.012-1.474 5.391-2.998 10.967-2.998 18.093v10.938h-6.836a1.953 1.953 0 000 3.906h8.789a1.953 1.953 0 001.953-1.953v-12.89c0-6.603 1.39-11.684 2.86-17.064 1.475-5.391 3-10.966 3-18.093V38.281c0-4.308-3.505-7.812-7.813-7.812a7.77 7.77 0 00-4.657 1.544 7.822 7.822 0 00-7.062-4.474 7.77 7.77 0 00-4.657 1.544 7.822 7.822 0 00-7.062-4.474 7.794 7.794 0 00-5.86 2.654 7.794 7.794 0 00-5.858-2.654c-4.308 0-7.813 3.505-7.813 7.813zm39.063 5.86a3.91 3.91 0 013.906-3.907 3.91 3.91 0 013.906 3.906V50a3.91 3.91 0 01-3.906 3.906A3.91 3.91 0 0154.077 50V38.281zm-11.72-2.93a3.91 3.91 0 013.907-3.907 3.91 3.91 0 013.906 3.907V47.07a3.91 3.91 0 01-3.906 3.907 3.91 3.91 0 01-3.906-3.907V35.352zm-11.718-2.93a3.91 3.91 0 013.906-3.906 3.91 3.91 0 013.907 3.906V47.07c0 1.113.235 2.171.656 3.13l-8.469-3.949v-13.83zm-11.719 0a3.91 3.91 0 013.906-3.906 3.91 3.91 0 013.907 3.906V44.43l-5.828-2.717a7.812 7.812 0 00-1.985-.62v-8.671zM42.358 8.984v-7.03a1.953 1.953 0 00-3.906 0v7.03a1.953 1.953 0 003.906 0zm-18.555 6.403a1.953 1.953 0 00.715-2.668l-2.93-5.076a1.953 1.953 0 10-3.383 1.952l2.93 5.076a1.953 1.953 0 002.668.716zM8.006 24.87L2.93 21.942a1.953 1.953 0 10-1.953 3.384l5.076 2.93a1.953 1.953 0 001.953-3.384zm51.668-10.198l2.93-5.076a1.953 1.953 0 00-3.383-1.953l-2.93 5.076a1.953 1.953 0 103.383 1.953zm15.082 13.582l5.076-2.93a1.953 1.953 0 00-1.953-3.383l-5.076 2.93a1.953 1.953 0 001.953 3.383z" fill="#1873CA"/><path d="M40.405 100a1.953 1.953 0 100-3.906 1.953 1.953 0 000 3.906z" fill="#1873CA"/></svg>