<svg width="80" height="100" fill="none" xmlns="http://www.w3.org/2000/svg"><path d="M77.997 41.06a7.728 7.728 0 00-.89-9.606 4.828 4.828 0 01-1.235-4.34 7.728 7.728 0 00-4.3-8.635 4.828 4.828 0 01-2.719-3.6 7.728 7.728 0 00-7.129-6.5 4.828 4.828 0 01-3.836-2.375 7.729 7.729 0 00-8.996-3.485 4.828 4.828 0 01-4.435-.83 7.728 7.728 0 00-9.647 0 4.827 4.827 0 01-4.435.83 7.728 7.728 0 00-8.995 3.485 4.828 4.828 0 01-3.836 2.375 7.729 7.729 0 00-7.13 6.5 4.828 4.828 0 01-2.719 3.6 7.729 7.729 0 00-4.3 8.635 4.828 4.828 0 01-1.234 4.34 7.729 7.729 0 00-.89 9.606 4.827 4.827 0 01.416 4.493 7.728 7.728 0 002.64 9.278 4.828 4.828 0 012.01 4.04 7.729 7.729 0 005.814 7.698 4.826 4.826 0 012.581 1.685L6.661 87.739c-1.131 2.73 1.429 5.542 4.252 4.676l8.836-2.712a.565.565 0 01.663.275l4.33 8.165c1.386 2.612 5.184 2.428 6.314-.3l8.412-20.308c.11-.004.22-.004.331 0l8.412 20.309c1.132 2.731 4.93 2.908 6.313.3l4.331-8.166a.564.564 0 01.663-.275l8.836 2.712c2.825.867 5.383-1.947 4.252-4.676l-8.071-19.485a4.827 4.827 0 012.58-1.685 7.729 7.729 0 005.814-7.698 4.827 4.827 0 012.011-4.04 7.728 7.728 0 002.64-9.278 4.832 4.832 0 01.417-4.493zM28.35 96.721a.562.562 0 01-1.019.049l-4.33-8.166a3.498 3.498 0 00-4.11-1.703l-8.837 2.712a.562.562 0 01-.686-.755l7.16-17.287a7.725 7.725 0 007.16 3.114 4.83 4.83 0 014.207 1.63 7.73 7.73 0 005.848 2.679c.691 0 1.386-.097 2.068-.286L28.35 96.722zm40.864-7.108l-8.836-2.712a3.498 3.498 0 00-4.11 1.703l-4.331 8.165a.563.563 0 01-1.019-.048l-7.46-18.01a7.724 7.724 0 007.915-2.396 4.827 4.827 0 014.207-1.63 7.72 7.72 0 007.16-3.114l7.16 17.287a.563.563 0 01-.686.755zm6.33-50.156a7.756 7.756 0 00-.669 7.218 4.81 4.81 0 01-1.643 5.776 7.756 7.756 0 00-3.23 6.488 4.811 4.811 0 01-3.62 4.792 7.754 7.754 0 00-4.789 3.658l-.008.016a7.756 7.756 0 00-.56 1.21 4.81 4.81 0 01-5.105 3.16 7.755 7.755 0 00-6.759 2.62 4.812 4.812 0 01-5.903 1.103 7.749 7.749 0 00-2.131-.752l-.019-.004a7.749 7.749 0 00-2.951.001l-.01.002a7.764 7.764 0 00-2.137.753 4.811 4.811 0 01-5.903-1.104 7.755 7.755 0 00-6.759-2.618 4.811 4.811 0 01-5.106-3.162 7.771 7.771 0 00-.558-1.208l-.01-.019a7.754 7.754 0 00-4.788-3.656 4.811 4.811 0 01-3.619-4.792 7.756 7.756 0 00-3.23-6.488 4.811 4.811 0 01-1.644-5.776 7.756 7.756 0 00-.669-7.218 4.81 4.81 0 01.554-5.98 7.756 7.756 0 001.984-6.97 4.811 4.811 0 012.677-5.377 7.756 7.756 0 004.368-5.784 4.811 4.811 0 014.438-4.045 7.755 7.755 0 006.162-3.816 4.812 4.812 0 015.6-2.17 7.756 7.756 0 007.125-1.331 4.81 4.81 0 016.005 0 7.755 7.755 0 007.125 1.332 4.811 4.811 0 015.6 2.169 7.756 7.756 0 006.162 3.816 4.811 4.811 0 014.438 4.045 7.757 7.757 0 004.368 5.785 4.81 4.81 0 012.677 5.375 7.755 7.755 0 001.984 6.972 4.812 4.812 0 01.553 5.98z" fill="#1873CA"/><path d="M11.89 37.525a1.465 1.465 0 001.633-1.275c1.617-13.147 12.843-23.062 26.111-23.062 13.274 0 24.5 9.92 26.113 23.074a1.465 1.465 0 002.908-.356c-1.793-14.621-14.269-25.647-29.021-25.647-14.745 0-27.22 11.02-29.019 25.633a1.465 1.465 0 001.275 1.633zm55.489 3.932a1.467 1.467 0 00-1.632 1.276c-1.612 13.155-12.838 23.075-26.113 23.075-13.27 0-24.495-9.916-26.112-23.064a1.465 1.465 0 00-2.907.358c1.797 14.614 14.272 25.635 29.019 25.635 14.753 0 27.229-11.026 29.02-25.648a1.464 1.464 0 00-1.275-1.632z" fill="#1873CA"/><path d="M60.317 33.453a2.808 2.808 0 00-2.595-1.957l-11.484-.412-3.94-10.795a2.808 2.808 0 00-2.664-1.863c-1.205 0-2.25.731-2.663 1.863l-3.94 10.795-11.485.412a2.809 2.809 0 00-2.595 1.957 2.809 2.809 0 00.949 3.109l9.049 7.083-3.158 11.05a2.809 2.809 0 001.06 3.073c.974.707 2.25.732 3.25.058l9.533-6.417 9.533 6.417c1 .672 2.275.65 3.25-.058a2.808 2.808 0 001.06-3.073l-3.158-11.05 9.05-7.084a2.808 2.808 0 00.948-3.108zm-11.853 7.925a2.824 2.824 0 00-.979 3.011l3.104 10.862-9.372-6.307a2.83 2.83 0 00-3.166 0l-9.372 6.307 3.104-10.862a2.824 2.824 0 00-.979-3.011l-8.895-6.964 11.29-.405a2.824 2.824 0 002.561-1.861l3.874-10.612 3.874 10.612a2.824 2.824 0 002.562 1.86l11.29.406-8.896 6.964z" fill="#1873CA"/></svg>