<svg width="100" height="100" fill="none" xmlns="http://www.w3.org/2000/svg"><path d="M30.052 99.987a1.953 1.953 0 01-1.953-1.954V81.276a15.672 15.672 0 01-4.003-10.502v-17.43L10.409 35.797a7.014 7.014 0 01.57-9.262 6.959 6.959 0 014.953-2.051c1.871 0 3.63.728 4.953 2.051l9.158 9.158-4.6-17.165a7.397 7.397 0 01.744-5.65 7.397 7.397 0 014.521-3.468c3.965-1.063 8.056 1.299 9.119 5.264l2.646 9.875V7.445C42.473 3.34 45.813 0 49.92 0c4.105 0 7.445 3.34 7.445 7.445v17.103l2.647-9.878c1.062-3.962 5.15-6.323 9.113-5.26a7.39 7.39 0 014.521 3.472 7.392 7.392 0 01.737 5.653l-1.704 6.314a1.954 1.954 0 01-3.771-1.017l1.703-6.315a3.51 3.51 0 00-.35-2.685 3.51 3.51 0 00-2.148-1.65 3.54 3.54 0 00-4.328 2.5l-6.487 24.205a1.954 1.954 0 01-3.84-.505V7.445a3.543 3.543 0 00-3.539-3.539 3.543 3.543 0 00-3.54 3.54v31.94a1.953 1.953 0 01-3.839.506l-6.485-24.206a3.544 3.544 0 00-4.334-2.502 3.515 3.515 0 00-2.15 1.649 3.517 3.517 0 00-.353 2.685l6.486 24.205a1.954 1.954 0 01-3.268 1.887L18.123 29.298a3.079 3.079 0 00-2.19-.907c-.829 0-1.607.322-2.192.907a3.103 3.103 0 00-.252 4.098l14.1 18.074c.268.343.413.766.413 1.202v18.102c0 3.15 1.22 6.116 3.437 8.354.363.366.566.86.566 1.375v17.53a1.953 1.953 0 01-1.953 1.954zm29.834.013a1.953 1.953 0 01-1.953-1.953V83.106c0-.741.42-1.419 1.083-1.749a13.667 13.667 0 006.173-6.237l2.14-4.41c.171-.352.443-.644.781-.84l20.536-11.856a4.891 4.891 0 001.788-6.674 4.913 4.913 0 00-6.034-2.097l-12.234 4.86a6.898 6.898 0 01-7.414-1.521 6.916 6.916 0 01-1.797-6.691l1.373-5.087A1.953 1.953 0 1168.1 41.82l-1.373 5.087a2.994 2.994 0 003.998 3.564l12.232-4.86c4.026-1.599 8.695.024 10.86 3.775a8.734 8.734 0 01.879 6.672 8.733 8.733 0 01-4.096 5.338L70.583 72.954l-1.879 3.871a17.605 17.605 0 01-6.864 7.44v13.782A1.954 1.954 0 0159.886 100zM9.96 6.445a1.953 1.953 0 01-1.952-1.953V1.953a1.953 1.953 0 113.906 0v2.54a1.953 1.953 0 01-1.953 1.952zm0 13.477a1.953 1.953 0 01-1.952-1.953v-2.47a1.953 1.953 0 113.906 0v2.47a1.953 1.953 0 01-1.953 1.953zm8.009-8.008h-2.54a1.953 1.953 0 010-3.906h2.54a1.953 1.953 0 110 3.906zm-13.477 0H1.953a1.953 1.953 0 010-3.906h2.54a1.953 1.953 0 110 3.906zm5.468 72.07a1.953 1.953 0 01-1.952-1.953v-2.539a1.953 1.953 0 113.906 0v2.54a1.953 1.953 0 01-1.953 1.952zm0 13.476a1.953 1.953 0 01-1.952-1.952v-2.47a1.953 1.953 0 113.906 0v2.47a1.953 1.953 0 01-1.953 1.953zm8.009-8.007h-2.54a1.953 1.953 0 110-3.906h2.54a1.953 1.953 0 110 3.906zm-13.477 0H1.953a1.953 1.953 0 110-3.906h2.54a1.953 1.953 0 110 3.906zM90.04 22.538a1.953 1.953 0 01-1.954-1.953v-2.54a1.953 1.953 0 013.906 0v2.54a1.953 1.953 0 01-1.953 1.953zm0 13.476a1.953 1.953 0 01-1.954-1.953v-2.47a1.953 1.953 0 013.906 0v2.47a1.953 1.953 0 01-1.953 1.953zm8.007-8.007h-2.54a1.953 1.953 0 010-3.907h2.54a1.953 1.953 0 110 3.907zm-13.477 0h-2.539a1.953 1.953 0 010-3.907h2.54a1.953 1.953 0 110 3.907z" fill="#1873CA"/><path d="M68.504 34.78a1.972 1.972 0 01-1.383-.573 1.968 1.968 0 01-.572-1.38c0-.514.209-1.018.572-1.382a1.972 1.972 0 011.383-.572 1.97 1.97 0 011.38.572c.364.364.573.867.573 1.381s-.209 1.018-.572 1.381a1.971 1.971 0 01-1.381.572z" fill="#1873CA"/></svg>