<svg width="115" height="100" fill="none" xmlns="http://www.w3.org/2000/svg"><path d="M84.874 63.76H79.21a2.342 2.342 0 00-2.34 2.339v15.117c0 1.29 1.05 2.34 2.34 2.34h5.664c1.29 0 2.34-1.05 2.34-2.34V66.099c0-1.29-1.05-2.34-2.34-2.34zM83.87 80.212h-3.658V67.101h3.658v13.112zM99.901 63.76h-5.663a2.342 2.342 0 00-2.34 2.339v15.117c0 1.29 1.05 2.34 2.34 2.34H99.9c1.29 0 2.34-1.05 2.34-2.34V66.099c0-1.29-1.05-2.34-2.34-2.34zM98.9 80.212h-3.66V67.101h3.66v13.112zM22.955 27.594c-3.122-.972-3.498-1.348-4.47-4.47a2.386 2.386 0 00-2.289-1.684 2.385 2.385 0 00-2.288 1.684c-.972 3.122-1.348 3.498-4.47 4.47a2.386 2.386 0 00-1.685 2.289c0 1.055.678 1.975 1.685 2.288 3.122.972 3.498 1.348 4.47 4.469a2.386 2.386 0 002.288 1.685 2.386 2.386 0 002.289-1.684c.972-3.122 1.348-3.498 4.468-4.47a2.386 2.386 0 001.686-2.289 2.386 2.386 0 00-1.684-2.288zm-6.759 5.638c-.77-1.632-1.716-2.578-3.349-3.349 1.633-.77 2.579-1.717 3.35-3.35.77 1.633 1.716 2.58 3.348 3.35-1.632.77-2.578 1.717-3.349 3.349zm49.216 50.695c-2.497-.778-2.726-1.007-3.503-3.503a2.26 2.26 0 00-2.169-1.596c-.999 0-1.87.64-2.168 1.596-.777 2.496-1.006 2.725-3.5 3.502a2.26 2.26 0 00-1.599 2.169c0 1 .642 1.872 1.596 2.168 2.497.778 2.726 1.007 3.503 3.505a2.261 2.261 0 002.168 1.594c1 0 1.872-.641 2.169-1.596.777-2.496 1.006-2.725 3.502-3.503a2.26 2.26 0 001.597-2.168 2.259 2.259 0 00-1.596-2.168zm-5.672 4.31c-.535-.951-1.19-1.606-2.141-2.142.951-.535 1.606-1.19 2.141-2.141.536.95 1.19 1.606 2.142 2.141-.951.535-1.606 1.19-2.142 2.142zm50.583-54.807c-2.497-.777-2.726-1.006-3.504-3.503a2.26 2.26 0 00-2.168-1.596c-.999 0-1.87.641-2.168 1.596-.778 2.497-1.007 2.726-3.502 3.503a2.26 2.26 0 00-1.597 2.169c0 .999.64 1.87 1.595 2.168 2.497.777 2.726 1.006 3.504 3.504a2.262 2.262 0 002.168 1.595c1 0 1.871-.642 2.168-1.596.778-2.496 1.007-2.726 3.504-3.503a2.262 2.262 0 001.596-2.168c0-1-.642-1.872-1.596-2.168zm-5.672 4.31c-.535-.951-1.19-1.606-2.141-2.142.951-.535 1.606-1.19 2.141-2.141.536.951 1.19 1.606 2.142 2.142-.952.535-1.606 1.19-2.142 2.14z" fill="#1873CA"/><path d="M109.451 90.609V78.075a1.672 1.672 0 00-3.343 0v11.612a5.448 5.448 0 00-5.588-1.548 5.474 5.474 0 00-4.551-2.443 5.475 5.475 0 00-5.334 4.271 5.538 5.538 0 00-1.722.028 5.474 5.474 0 00-5.381-4.51 5.472 5.472 0 00-5.466 5.466v5.706H71.23v-34.86h34.878v7.365a1.671 1.671 0 103.342 0v-7.365h1.735c.988 0 1.773-.473 2.099-1.265.327-.792.103-1.68-.597-2.377L87.09 32.71c-.753-.748-2.02-1.27-3.082-1.27l-48.525.003c-.996 0-2.213.52-2.965 1.268L24 41.178a1.67 1.67 0 102.356 2.37l8.694-8.643 1.673 1.68-21.569 21.57c-.13.124-.54.295-.72.298H11.36l9.425-9.368a1.67 1.67 0 10-2.356-2.37L6.92 58.156c-.7.696-.923 1.584-.597 2.376.327.792 1.111 1.265 2.1 1.265h5.453v6.545c-.482.213-1.075.414-1.831.65a2.386 2.386 0 00-1.685 2.288c0 1.054.677 1.974 1.684 2.288.756.236 1.35.436 1.832.65v11.279a6.566 6.566 0 00-4.887 3.764A6.559 6.559 0 000 95.346v2.983A1.67 1.67 0 001.671 100H112.41a1.67 1.67 0 001.671-1.671V96.01a5.474 5.474 0 00-4.63-5.401zm-95.575 6.049H3.342v-1.312c0-1.77 1.44-3.21 3.21-3.21a3.18 3.18 0 012.318.995c.472.493 1.196.64 1.83.386a1.684 1.684 0 001.049-1.56c0-1.39.89-2.574 2.127-3.02v7.72zm94.371-38.204h-44.61c-.18-.003-.589-.173-.717-.297l-3.81-3.827h44.988l4.149 4.124zm-14.13-14.046h-6.105a1.671 1.671 0 000 3.342h9.467l3.257 3.238H55.782l-3.224-3.238h26.096a1.671 1.671 0 000-3.342H49.23l-3.224-3.238h44.853l3.258 3.238zm-10.11-9.626c.182.003.596.174.727.3l2.763 2.746H42.678l-3.026-3.038 44.355-.008zm-39.18 61.876H32.72V67.1h12.106v29.557zm3.342 0V66.544a2.788 2.788 0 00-2.785-2.785h-13.22a2.788 2.788 0 00-2.785 2.785v30.114h-12.16V79.126a2.39 2.39 0 001.585.596 2.385 2.385 0 002.288-1.684c.972-3.122 1.348-3.498 4.471-4.47a2.387 2.387 0 001.683-2.289 2.386 2.386 0 00-1.684-2.288c-3.122-.972-3.498-1.348-4.47-4.47a2.385 2.385 0 00-2.288-1.684c-.602 0-1.159.22-1.585.596V61.24c.003-.18.173-.592.298-.721l21.565-21.565 21.47 21.56c.75.755 2.02 1.282 3.084 1.282h4.252v34.862H48.17zM15.455 71.279c1.632-.77 2.578-1.716 3.349-3.349.77 1.633 1.716 2.579 3.349 3.35-1.632.77-2.579 1.716-3.35 3.348-.77-1.632-1.716-2.578-3.348-3.349zm95.284 25.379h-29.33V90.95c0-1.17.952-2.123 2.123-2.123 1.17 0 2.123.953 2.123 2.123v1.604A1.671 1.671 0 0088.44 93.8a2.117 2.117 0 011.414-.544c.471 0 .92.154 1.295.445a1.672 1.672 0 002.695-1.32v-1.218c0-1.17.953-2.123 2.123-2.123 1.013 0 1.888.72 2.082 1.712a1.671 1.671 0 002.695.976 2.1 2.1 0 011.336-.475 2.13 2.13 0 012.124 2.139 1.67 1.67 0 002.879 1.155 2.1 2.1 0 011.532-.659c1.171 0 2.123.953 2.123 2.124v.647z" fill="#1873CA"/><path d="M42.098 78.043c-.923 0-1.672.748-1.672 1.671v2.35a1.671 1.671 0 003.343 0v-2.35a1.67 1.67 0 00-1.671-1.671zm14.72-10.973h-4.234c-1.29 0-2.34 1.05-2.34 2.34v5.124c0 1.29 1.05 2.34 2.34 2.34h4.234c1.29 0 2.34-1.05 2.34-2.34V69.41c0-1.29-1.05-2.34-2.34-2.34zm-1.003 6.462h-2.228v-3.12h2.228v3.12zM86.675 0C80.348 0 75.2 5.148 75.2 11.475S80.348 22.95 86.675 22.95 98.15 17.802 98.15 11.475 93.002 0 86.675 0zm0 19.608c-4.484 0-8.133-3.649-8.133-8.133 0-4.484 3.648-8.133 8.133-8.133 4.484 0 8.133 3.649 8.133 8.133 0 4.484-3.649 8.133-8.133 8.133z" fill="#1873CA"/></svg>