<svg width="101" height="100" fill="none" xmlns="http://www.w3.org/2000/svg"><path d="M47.307 74.1a1.698 1.698 0 00-2.373.363l-.21.285a1.697 1.697 0 002.734 2.014l.212-.29a1.698 1.698 0 00-.363-2.372z" fill="#1873CA"/><path d="M47.75 90.25l-4.366-7.94 4.076-5.551a1.697 1.697 0 10-2.736-2.01l-4.718 6.426a1.698 1.698 0 00-.12 1.823l4.89 8.888a1.698 1.698 0 102.974-1.636zm12.652-9.075l-4.698-6.399a1.698 1.698 0 00-2.737 2.01l4.056 5.525-4.336 7.885a1.697 1.697 0 102.975 1.637L60.522 83c.318-.58.272-1.29-.12-1.823zm2.691-26.678a1.698 1.698 0 00-1.753.105 27.047 27.047 0 00-2.785 2.19c-4.569 4.13-8.91 3.572-9.08 3.547a1.656 1.656 0 00-.309-.02c-1.805.046-5.06-1.604-8.505-4.308a27.785 27.785 0 00-1.606-1.172 1.697 1.697 0 00-2.647 1.407v5.823a1.698 1.698 0 00.784 1.43l12.037 8.044.006.004.032.022a1.697 1.697 0 001.894-.013l.017-.011a.867.867 0 00.02-.013l12.01-8.025a1.697 1.697 0 00.794-1.437V56a1.699 1.699 0 00-.91-1.503zm-2.488 6.664l-10.4 6.95-10.402-6.95v-1.544c2.533 1.84 6.258 4.098 9.295 4.098h.02c1.02.113 6.219.42 11.487-4.203v1.65z" fill="#1873CA"/><path d="M51.879 69.874a1.698 1.698 0 00-3.043-.725l-3.902 5.315a1.697 1.697 0 102.737 2.009l3.882-5.287a1.695 1.695 0 00.326-1.312zm24.188-54.728c-.033-.266-.829-6.005-6.231-8.27.157-1.007.14-2.303-.5-3.563C68.476 1.619 66.78.515 64.291.03a1.691 1.691 0 00-.323-.03H41.181c-9.252 0-16.78 7.527-16.78 16.78v8.94c0 2.33.795 4.601 2.236 6.396.715.89 1.595 2.444 1.728 4.794a1.698 1.698 0 003.392-.096V25.157c1.153-4.767 5.087-5.695 5.764-5.82h7.37a8.29 8.29 0 002.534-.394c1.401-.45 3.625-1.277 5.243-1.891a4.921 4.921 0 013.376-.043l7.89 2.77c3.945 1.455 4.649 4.918 4.736 5.462v13.99a1.696 1.696 0 003.377.25c.007-.043.684-4.422 2.87-7.927a7.607 7.607 0 001.163-4.024V15.36a1.71 1.71 0 00-.014-.214zm-3.382 12.383a4.21 4.21 0 01-.619 2.18v-4.584c0-.061-.003-.122-.01-.183-.026-.247-.728-6.064-6.961-8.354l-.023-.009-7.902-2.774a8.316 8.316 0 00-5.706.073c-2.267.86-4.022 1.494-5.075 1.832a4.885 4.885 0 01-1.497.232h-7.508c-.072 0-.145.005-.218.014-.287.037-7.058 1-8.762 8.637-.027.122-.04.246-.04.37v3.494a6.898 6.898 0 01-.566-2.736V16.78c0-7.38 6.004-13.384 13.384-13.384h22.614c.936.2 2.074.608 2.506 1.441.528 1.02-.074 2.423-.074 2.424a1.698 1.698 0 001.139 2.372c4.322 1.04 5.203 5.185 5.318 5.856v12.04z" fill="#1873CA"/><path d="M72.056 24.942c-.026-.247-.728-6.064-6.961-8.354l-.023-.009-7.902-2.774a8.325 8.325 0 00-5.706.072c-2.267.861-4.022 1.495-5.075 1.833-.48.153-.983.231-1.498.231h-7.507a1.73 1.73 0 00-.218.014c-.287.037-7.058 1-8.762 8.638a1.699 1.699 0 00-.041.37v14.631c.012.507.37 12.479 8.642 17.954l.043.03a24.53 24.53 0 011.517 1.103c2.41 1.892 6.95 5.034 10.533 5.034h.02c.194.022.542.05 1.013.05 2.03 0 6.362-.532 10.7-4.454a23.674 23.674 0 012.435-1.913l.127-.089c.041-.03.083-.058.125-.087 2.76-1.853 7.538-6.635 8.542-17.84.004-.05.007-.1.007-.151V25.124a1.79 1.79 0 00-.01-.183zm-3.385 14.212c-.925 10.112-5.233 14.032-7.046 15.249a8.16 8.16 0 00-.191.133l-.094.066a27.056 27.056 0 00-2.785 2.19c-4.552 4.115-8.878 3.575-9.09 3.545a1.702 1.702 0 00-.299-.018c-1.805.046-5.06-1.603-8.505-4.308a27.659 27.659 0 00-1.605-1.172l-.042-.029a3.132 3.132 0 00-.13-.09c-6.674-4.418-7.111-14.757-7.126-15.188V25.157c1.157-4.785 5.116-5.702 5.76-5.82h7.374a8.29 8.29 0 002.534-.394c1.401-.45 3.625-1.277 5.243-1.892a4.922 4.922 0 013.376-.042l7.89 2.77c3.945 1.455 4.649 4.918 4.736 5.462v13.913zM51.722 69.395a1.698 1.698 0 00-2.887-.246l-4.066 5.539a1.698 1.698 0 002.735 2.012l4.066-5.518c.215-.292.331-.665.331-1.027a1.7 1.7 0 00-.179-.76zm.109 27.333a1.697 1.697 0 00-2.372-.08l-.388.356a1.697 1.697 0 00-.337 2.08l.012.021a1.698 1.698 0 002.683.373l.376-.376a1.697 1.697 0 00.026-2.374z" fill="#1873CA"/><path d="M51.337 97.004l-.388-.355a1.698 1.698 0 00-2.346 2.453l.377.377a1.697 1.697 0 002.689-.384l.011-.022a1.698 1.698 0 00-.343-2.07z" fill="#1873CA"/><path d="M51.366 97.03l-.002-.002a1.697 1.697 0 00-2.317-.002l-.005.004a1.698 1.698 0 00-.053 2.458l.018.018a1.693 1.693 0 002.397-.003l.018-.018a1.698 1.698 0 00-.056-2.455zm-.611-28.52a1.704 1.704 0 00-1.903.639 1.695 1.695 0 001.387 2.678 1.699 1.699 0 001.7-1.699v-.004c0-.739-.48-1.389-1.184-1.613z" fill="#1873CA"/><path d="M51.584 69.135l-.015-.02a1.698 1.698 0 00-3.063 1.01v.028a1.697 1.697 0 001.702 1.69 1.698 1.698 0 001.376-2.709z" fill="#1873CA"/><path d="M70.4 63.802a1.696 1.696 0 00-1.015-.997l-6.51-2.334a1.696 1.696 0 00-1.517.186l-12.06 8.06-.01.006.947 1.409-.968-1.394a1.697 1.697 0 00-.431 2.421l8.83 12.026a1.697 1.697 0 002.855-.187L70.3 65.22c.24-.436.276-.955.1-1.42zm-11.572 15.23l-6.206-8.453 9.912-6.623 3.83 1.373-7.536 13.702z" fill="#1873CA"/><path d="M51.877 69.86a1.697 1.697 0 00-.727-1.116l-12.1-8.086a1.7 1.7 0 00-1.517-.186l-6.51 2.333a1.697 1.697 0 00-.914 2.416l9.778 17.777a1.698 1.698 0 002.856.186l4.718-6.425a.52.52 0 00.01-.016l4.102-5.585c.273-.373.383-.841.304-1.297zm-7.153 4.889l-.012.016-3.132 4.267-7.537-13.703 3.83-1.373 9.913 6.623-3.062 4.17zm55.6 18.033l-2.19-13.224a11.706 11.706 0 00-7.559-9.086L69.39 62.807a1.697 1.697 0 00-2.097 2.354l4.424 8.87-4.34.068a1.697 1.697 0 00-1.479 2.485l1.78 3.399L49.459 96.65a1.68 1.68 0 00-.054.052l-.376.376a1.697 1.697 0 00-.29 2.015l.014.024a1.7 1.7 0 001.49.883h43.962c1.826 0 3.55-.799 4.731-2.192a6.192 6.192 0 001.389-5.026zm-3.978 2.83a2.805 2.805 0 01-2.142.993H54.538l16.397-15c.568-.52.715-1.357.358-2.04l-1.108-2.114 4.28-.066a1.698 1.698 0 001.493-2.455l-3.733-7.487 17.196 6.221a8.308 8.308 0 015.364 6.449l2.19 13.224a2.804 2.804 0 01-.629 2.275z" fill="#1873CA"/><path d="M51.38 97.044l-.02-.018a1.698 1.698 0 00-2.342.062l-.018.018A1.698 1.698 0 0050.204 100h.037a1.697 1.697 0 001.14-2.956z" fill="#1873CA"/><path d="M51.327 96.995a1.695 1.695 0 00-2.624.445l-.012.022a1.698 1.698 0 00.269 1.996l.006.007a1.692 1.692 0 002.364.073l.018-.016c.154-.14.28-.309.374-.495a1.716 1.716 0 00-.395-2.032z" fill="#1873CA"/><path d="M51.4 97.099l-.006-.008-.014-.013-.376-.376a1.398 1.398 0 00-.055-.052L32.73 79.983l1.78-3.4a1.698 1.698 0 00-1.477-2.484l-4.34-.067 4.423-8.871a1.698 1.698 0 00-2.097-2.354L9.833 70.472a11.706 11.706 0 00-7.56 9.086L.084 92.782a6.193 6.193 0 001.39 5.026A6.194 6.194 0 006.205 100h44a1.697 1.697 0 001.196-2.901zm-45.195-.494a2.803 2.803 0 01-2.143-.993 2.805 2.805 0 01-.628-2.275l2.19-13.225a8.307 8.307 0 015.364-6.448l17.196-6.22-3.733 7.485a1.697 1.697 0 001.493 2.455l4.28.067-1.108 2.114c-.357.683-.21 1.52.358 2.04l16.397 15H6.205z" fill="#1873CA"/><path d="M55.982 76.192c.123-.49.02-1.01-.279-1.417l-4.13-5.626a1.692 1.692 0 00-1.898-.598 1.693 1.693 0 00-.892.69l-4.056 5.504a1.698 1.698 0 00-.028 1.98l1.727 2.48-1.84 11.597c-.059.372.008.753.19 1.084l3.94 7.166a1.698 1.698 0 002.976 0l3.97-7.22c.138-.25.21-.531.21-.817v-.001c0-.09-.007-.178-.02-.266L54.02 79.205l1.709-2.453c.117-.17.203-.36.253-.56zm-5.778 18.52l-2.174-3.953 1.856-11.697a1.697 1.697 0 00-.283-1.236l-1.423-2.044 2.03-2.753 2.039 2.778-1.406 2.019c-.25.36-.352.802-.283 1.236l1.847 11.644-2.203 4.005z" fill="#1873CA"/></svg>