<svg width="100" height="100" fill="none" xmlns="http://www.w3.org/2000/svg"><path d="M1.61 49.978h.058c.898 0 1.636-.712 1.666-1.61.902-25.757 22.513-45.906 48.27-45.005a46.665 46.665 0 0127.235 9.972h-8.87a1.667 1.667 0 000 3.334h13.357c.13-.011.259-.037.383-.077.085-.012.17-.03.252-.055.046-.02.081-.062.126-.087.15-.073.287-.17.407-.285l.017-.011a1.8 1.8 0 00.115-.182c.087-.106.16-.223.218-.348a1.57 1.57 0 00.083-.412 1.37 1.37 0 00.042-.21V1.669a1.667 1.667 0 00-3.333 0v9.653C60.282-6.174 28.788-3.046 11.292 18.308A49.988 49.988 0 000 48.256c-.03.92.689 1.69 1.608 1.722zm13.492 31.038a1.67 1.67 0 10-2.5 2.214 50.76 50.76 0 003.632 3.68 1.667 1.667 0 002.248-2.46 47.033 47.033 0 01-3.38-3.434zm19.89 13.196a46.462 46.462 0 01-4.482-1.782 1.667 1.667 0 10-1.393 3.027 49.248 49.248 0 004.807 1.913 1.667 1.667 0 001.068-3.158zm-8.755-4.022v-.001a47.843 47.843 0 01-4.023-2.667 1.667 1.667 0 10-1.982 2.678 50.547 50.547 0 004.305 2.859 1.667 1.667 0 101.7-2.869zM12.084 77.254a47.273 47.273 0 01-2.613-4.055 1.669 1.669 0 00-2.892 1.667 50.453 50.453 0 002.8 4.335 1.667 1.667 0 002.705-1.947zm-4.649-7.669c0-.232-.048-.462-.142-.674l-.004-.012a46.53 46.53 0 01-1.725-4.5 1.667 1.667 0 10-3.166 1.029 50.09 50.09 0 001.846 4.833 1.667 1.667 0 003.191-.676zm-4.4-7.874a1.667 1.667 0 001.284-1.975 47.232 47.232 0 01-.753-4.765 1.668 1.668 0 00-3.317.352c.183 1.714.453 3.417.81 5.103a1.667 1.667 0 001.976 1.285zm94.269-1.701h-.002a1.667 1.667 0 00-2.018 1.216 46.725 46.725 0 01-1.398 4.618 1.667 1.667 0 103.136 1.13 50.11 50.11 0 001.5-4.947 1.667 1.667 0 00-1.218-2.017zM44.388 96.333a46.711 46.711 0 01-4.753-.816 1.667 1.667 0 00-.735 3.251c1.682.38 3.383.672 5.095.875a1.667 1.667 0 00.393-3.31zM94.23 69.516a1.667 1.667 0 00-2.225.775 46.383 46.383 0 01-2.323 4.228 1.666 1.666 0 002.834 1.755 49.934 49.934 0 002.488-4.532 1.667 1.667 0 00-.773-2.226zm-4.923 8.668a1.667 1.667 0 00-2.371.305v-.004a46.698 46.698 0 01-3.142 3.667 1.668 1.668 0 002.417 2.298 51.017 51.017 0 003.363-3.925 1.667 1.667 0 00-.267-2.341zM98.33 50.08a1.642 1.642 0 00-1.724 1.606 46.684 46.684 0 01-.419 4.807 1.667 1.667 0 003.302.458c.237-1.707.387-3.425.448-5.148a1.666 1.666 0 00-1.606-1.723zM80.302 85.467v.005a47.185 47.185 0 01-3.833 2.947 1.67 1.67 0 001.9 2.748A51.145 51.145 0 0082.47 88a1.667 1.667 0 00-2.166-2.533zM63.488 94.68c-1.54.464-3.103.848-4.683 1.15a1.667 1.667 0 00.626 3.275 49.354 49.354 0 005.02-1.235 1.667 1.667 0 00-.963-3.19zm-9.377 1.806c-.03.001-.06.004-.091.007l.008.007a48.13 48.13 0 01-4.058.167h-.762a1.725 1.725 0 00-1.698 1.636c-.017.92.716 1.68 1.636 1.697h.824c1.457 0 2.917-.065 4.333-.187a1.666 1.666 0 10-.192-3.327zm18.257-5.538h.001a47.062 47.062 0 01-4.343 2.097 1.667 1.667 0 101.29 3.073 50.17 50.17 0 004.653-2.246 1.667 1.667 0 00-1.601-2.924z" fill="#1873CA"/><path d="M49.97 15.002c-19.33 0-35 15.67-35 35C14.97 69.33 30.64 85 49.97 85s34.999-15.67 34.999-34.999c-.022-19.32-15.679-34.977-35-34.999zm26.666 36.666h4.915c-.866 16.149-13.766 29.048-29.915 29.914v-4.915a1.667 1.667 0 00-3.333 0v4.915c-16.149-.866-29.048-13.765-29.914-29.914h4.915a1.667 1.667 0 000-3.334h-4.915c.866-16.149 13.765-29.048 29.914-29.914v4.915a1.667 1.667 0 003.333 0V18.42c16.15.866 29.049 13.765 29.915 29.914h-4.915a1.667 1.667 0 000 3.334z" fill="#1873CA"/><path d="M51.636 45.308V30.002a1.667 1.667 0 00-3.333 0v15.306a5 5 0 00-3.026 3.026h-8.64a1.667 1.667 0 000 3.334h8.64a4.988 4.988 0 106.36-6.36zm-1.666 6.36a1.667 1.667 0 110-3.334 1.667 1.667 0 010 3.334z" fill="#1873CA"/></svg>