<svg width="61" height="100" fill="none" xmlns="http://www.w3.org/2000/svg"><path d="M37.54 26.504c.808 0 1.464-.656 1.464-1.465v-1.193a1.465 1.465 0 00-2.93 0v1.193c0 .809.656 1.465 1.465 1.465zM23.166 22.38c-.809 0-1.465.656-1.465 1.465v1.193a1.465 1.465 0 002.93 0v-1.193c0-.809-.656-1.465-1.465-1.465zm10.043 1.607a1.465 1.465 0 00-2.066.141 1.04 1.04 0 01-.79.36c-.415 0-.674-.225-.791-.36a1.465 1.465 0 10-2.208 1.925 3.977 3.977 0 005.997 0 1.465 1.465 0 00-.142-2.066zM51.163 39.17c-.794-.895-.925-2.17-.328-3.172a23.782 23.782 0 003.345-12.084c.018-5.128-1.591-10.033-4.656-14.184a1.465 1.465 0 10-2.357 1.74c2.688 3.64 4.1 7.94 4.083 12.433A20.851 20.851 0 0148.318 34.5c-1.253 2.103-.99 4.762.653 6.616 3.098 3.495 5.464 7.797 6.96 12.515-4.808-.954-10.024-2.625-14.717-4.723-.54-1.94-1.735-3.906-3.384-5.555a6.027 6.027 0 00-7.476-.828 6.028 6.028 0 00-7.477.828c-1.65 1.65-2.844 3.615-3.384 5.555-4.693 2.099-9.91 3.769-14.716 4.723 1.495-4.718 3.86-9.02 6.96-12.515 1.643-1.854 1.906-4.512.653-6.612a20.853 20.853 0 01-2.933-10.676c0-5.673 2.234-10.981 6.293-14.947 4.056-3.964 9.417-6.074 15.098-5.944A20.681 20.681 0 0142.44 6.814a1.465 1.465 0 001.704-2.383A23.595 23.595 0 0030.914.007c-6.474-.15-12.587 2.258-17.212 6.778-4.627 4.521-7.175 10.573-7.175 17.042 0 4.292 1.157 8.503 3.347 12.176.596 1 .463 2.273-.33 3.168C3.389 46.114 0 55.517 0 65.648a40.781 40.781 0 00.321 5.172c.85 6.649 3.38 12.334 7.452 16.709a6.03 6.03 0 00.722 9.542 1.465 1.465 0 101.602-2.453 3.1 3.1 0 012.456-5.6c5.036 1.275 12.757 1.855 17.8 1.855 5.043 0 12.765-.58 17.8-1.854a3.102 3.102 0 013.765 2.244 3.102 3.102 0 01-2.244 3.764c-6.377 1.613-15.145 2.043-19.32 2.043-3.306 0-8.988-.27-14.125-1.033a1.464 1.464 0 10-.43 2.898C21.088 99.72 26.785 100 30.353 100c4.311 0 13.383-.45 20.04-2.133a6.035 6.035 0 004.365-7.322 5.993 5.993 0 00-1.826-3.013c4.072-4.376 6.603-10.062 7.453-16.711l.002-.015c.212-1.662.32-3.382.32-5.158 0-10.13-3.39-19.534-9.544-26.477zm-19.774 6.252a3.08 3.08 0 012.185-.903 3.08 3.08 0 012.184.903c1.316 1.316 2.289 2.918 2.67 4.395.031.123.057.243.08.362l.005.023c.174.932.075 1.721-.274 2.07-.396.397-1.36.47-2.456.189-1.476-.38-3.078-1.353-4.394-2.67a3.07 3.07 0 01-.905-2.184c0-.825.322-1.6.905-2.184zM22.194 50.2l.005-.02c.022-.12.049-.24.08-.363.38-1.477 1.354-3.078 2.67-4.395.9-.9 2.22-1.126 3.333-.682a6.042 6.042 0 00.091 5.897c-1.099.884-2.31 1.53-3.45 1.824-1.095.282-2.059.208-2.455-.189-.35-.35-.448-1.14-.274-2.072zM2.93 65.648c0-.674.02-1.346.053-2.016 1.816.834 3.974 1.562 6.81 2.307a2.728 2.728 0 01-1.386 5.277c-2.058-.541-3.76-1.065-5.277-1.627a38.35 38.35 0 01-.2-3.94zm47.279 20.49a5.992 5.992 0 00-2.773.04c-4.793 1.213-12.214 1.765-17.082 1.765-4.867 0-12.289-.552-17.082-1.764a6 6 0 00-2.775-.045C7.03 82.661 4.71 78.16 3.63 72.867c1.21.4 2.533.788 4.033 1.182a5.66 5.66 0 006.91-4.034 5.664 5.664 0 00-4.035-6.91c-3.2-.84-5.444-1.639-7.277-2.598.162-1.264.386-2.511.665-3.739 4.935-.854 10.381-2.48 15.367-4.58.172.857.542 1.595 1.104 2.157.801.8 1.956 1.216 3.305 1.216.615 0 1.272-.087 1.953-.262 1.607-.414 3.238-1.285 4.7-2.493 2.166 1.795 4.599 2.769 6.653 2.769 1.313 0 2.471-.397 3.304-1.23.562-.562.932-1.3 1.104-2.156 4.985 2.1 10.432 3.725 15.367 4.58a39.55 39.55 0 01.665 3.737c-1.833.96-4.078 1.759-7.277 2.6a5.664 5.664 0 00-4.034 6.909 5.66 5.66 0 006.91 4.034 67.23 67.23 0 004.032-1.182c-1.08 5.294-3.402 9.797-6.87 13.27zm7.37-16.55c-1.518.563-3.22 1.087-5.277 1.628a2.728 2.728 0 01-1.386-5.277c2.836-.745 4.994-1.473 6.81-2.307.033.67.052 1.342.052 2.016 0 1.35-.067 2.665-.199 3.94zm-20.42-7.592a5.442 5.442 0 00-.529.077 5.447 5.447 0 00-2.786-4.11 7.227 7.227 0 00-6.98 0 5.448 5.448 0 00-2.786 4.11 5.447 5.447 0 00-4.77 1.38 7.228 7.228 0 00-2.156 6.638 5.447 5.447 0 002.575 3.671c.154.091.313.172.474.247a5.447 5.447 0 00-.163 4.964 7.228 7.228 0 005.647 4.103 5.448 5.448 0 004.67-1.688 5.448 5.448 0 004.67 1.688 7.228 7.228 0 005.646-4.103 5.446 5.446 0 00-.163-4.964c.16-.075.32-.155.473-.246a5.448 5.448 0 002.576-3.672 7.228 7.228 0 00-2.157-6.639 5.45 5.45 0 00-4.242-1.456zM21.22 71.242a2.484 2.484 0 01-1.19-1.697 4.31 4.31 0 011.287-3.96 2.484 2.484 0 011.96-.672c.73.068 1.369.433 1.8 1.026l2.907 4.002-4.704 1.529a2.483 2.483 0 01-2.06-.228zm7.67 6.432a2.48 2.48 0 01-.854 1.888c-.55.485-1.254.7-1.98.608a4.31 4.31 0 01-3.37-2.448 2.483 2.483 0 01-.034-2.071 2.484 2.484 0 011.533-1.395l4.704-1.529v4.947zm1.464-9.455l-2.907-4.002a2.482 2.482 0 01-.42-2.03 2.482 2.482 0 011.246-1.655 4.311 4.311 0 014.163 0c.643.352 1.085.94 1.246 1.656.16.715.011 1.436-.42 2.029l-2.908 4.002zm7.667 9.504a4.31 4.31 0 01-3.368 2.447 2.48 2.48 0 01-1.98-.608 2.483 2.483 0 01-.854-1.888v-4.947l4.705 1.529a2.483 2.483 0 011.532 1.395c.29.673.279 1.408-.035 2.072zm2.657-8.177a2.484 2.484 0 01-1.19 1.696 2.483 2.483 0 01-2.059.228l-4.705-1.53 2.908-4.001a2.483 2.483 0 011.8-1.026 2.48 2.48 0 011.96.673 4.31 4.31 0 011.287 3.96zM30.354 8.252c-7.602 0-13.947 5.47-15.316 12.678l-.01.06c-.173.927-.268 1.88-.268 2.856 0 8.599 6.996 15.594 15.594 15.594 8.599 0 15.594-6.995 15.594-15.594 0-1.29-.16-2.542-.457-3.742-.009-.05-.02-.1-.034-.149-1.733-6.722-7.847-11.703-15.103-11.703zm12.664 15.594c0 6.983-5.68 12.664-12.664 12.664-6.983 0-12.664-5.68-12.664-12.664 0-.392.02-.78.056-1.163 5.092-.144 12.818-1.095 16.651-3.867 1.929 1.806 5.167 2.986 8.464 3.04.103.65.157 1.313.157 1.99zm-7.226-7.892a1.464 1.464 0 00-2.373-.177c-1.492 1.782-7.174 3.675-15.04 3.96 1.71-4.972 6.43-8.555 11.975-8.555 5.22 0 9.712 3.175 11.648 7.696-2.877-.275-5.387-1.576-6.21-2.924z" fill="#1873CA"/></svg>