<svg width="116" height="100" fill="none" xmlns="http://www.w3.org/2000/svg"><path d="M113.461 76.923h-1.923v-5.77a1.922 1.922 0 00-1.923-1.922H87.078l.962-3.846h17.729a5.77 5.77 0 004.08-9.85 5.77 5.77 0 00-4.08-1.689H84.39a9.604 9.604 0 00-9.122 6.575l-3.208 9.625-.902-.824 1.795-26.914H75a1.923 1.923 0 001.923-1.923V28.846a17.327 17.327 0 00-18.452-17.27 23.081 23.081 0 00-40.02 0A17.327 17.327 0 000 28.846v11.539a1.923 1.923 0 001.924 1.923H3.97l3.726 55.897A1.923 1.923 0 009.616 100H113.46a1.92 1.92 0 001.924-1.923v-19.23a1.922 1.922 0 00-1.924-1.924zm-1.923 3.846v3.846H69.231V80.77h42.307zm-32.62-19.132a5.763 5.763 0 015.472-3.945h21.379a1.924 1.924 0 010 3.846h-19.23a1.923 1.923 0 00-1.866 1.457l-1.923 7.693a1.923 1.923 0 001.865 2.389h23.077v3.846h-33.87l5.096-15.286zm-9.15 15.286h-2.265L55.286 65.77a5.734 5.734 0 00.483-2.307V60.38l14.96 13.658-.961 2.885zM46.154 50a1.923 1.923 0 00-1.923 1.923v26.923a1.923 1.923 0 01-3.846 0V51.923a1.923 1.923 0 10-3.847 0v30.77a1.923 1.923 0 11-3.846 0v-30.77a1.923 1.923 0 10-3.846 0v26.923a1.923 1.923 0 01-3.846 0V51.923a1.923 1.923 0 10-3.846 0v15.385a1.923 1.923 0 11-3.846 0V26.923h34.615v36.539a1.923 1.923 0 01-3.846 0V51.923A1.923 1.923 0 0046.154 50zm21.37 15.905L55.769 55.172V42.308H69.1l-1.575 23.597zm5.553-27.443H55.769v-7.693h17.308v7.693zm-55.77-23.077c.654 0 1.306.047 1.952.14a1.923 1.923 0 001.997-1.042 19.234 19.234 0 0134.411 0 1.925 1.925 0 001.997 1.042 13.47 13.47 0 0115.273 11.398H55.77V25a1.923 1.923 0 00-1.923-1.923H15.385A1.923 1.923 0 0013.46 25v1.923H3.986a13.48 13.48 0 0113.322-11.538zM3.848 30.769h9.614v7.693H3.846v-7.693zm3.978 11.539h5.636v25a5.768 5.768 0 007.693 5.438v6.1a5.766 5.766 0 007.894 5.362 5.769 5.769 0 0011.132.003 5.774 5.774 0 007.897-5.365V68.9a5.753 5.753 0 004.583-.322l12.725 11.619v15.957h-53.97l-3.59-53.846zm99.867 53.846V94.23a1.922 1.922 0 00-3.283-1.36c-.36.36-.563.85-.563 1.36v1.923H100V94.23a1.923 1.923 0 00-3.846 0v1.923h-3.846V94.23a1.923 1.923 0 10-3.847 0v1.923h-3.846V94.23a1.923 1.923 0 10-3.846 0v1.923h-3.846V94.23a1.923 1.923 0 10-3.846 0v1.923H69.23v-7.692h42.307v7.692h-3.846z" fill="#1873CA"/></svg>